<svg xmlns="http://www.w3.org/2000/svg" width="130" height="130" viewBox="0 0 130 130" fill="none"><metadata><rdf:RDF xmlns:rdf="http://www.w3.org/1999/02/22-rdf-syntax-ns#" xmlns:dc="http://purl.org/dc/elements/1.1/"><rdf:Description><dc:creator>RealFaviconGenerator</dc:creator><dc:source>https://realfavicongenerator.net</dc:source></rdf:Description></rdf:RDF></metadata><g clip-path="url(#clip0_2002_4007)">
<path d="M91.1061 56.9243C98.9186 56.9243 105.252 51.0657 105.252 43.8388C105.252 36.612 98.9186 30.7534 91.1061 30.7534C83.2935 30.7534 76.9602 36.612 76.9602 43.8388C76.9602 51.0657 83.2935 56.9243 91.1061 56.9243Z" fill="#FF6584"></path>
<path d="M129.909 53.5951C129.94 53.5899 129.964 53.5697 130 53.5748C129.984 53.5182 129.963 53.4628 129.938 53.4092C129.893 53.466 129.847 53.5239 129.807 53.5746L129.909 53.5951Z" fill="white"></path>
<path d="M35.0305 74.8098C35.1131 77.6647 35.6301 80.4946 36.5662 83.216C36.5876 83.2792 36.61 83.3414 36.6324 83.4046H42.3633C42.3572 83.348 42.3511 83.2848 42.345 83.216C41.9628 79.1524 39.7597 54.42 42.3939 50.1904C42.1636 50.5335 34.5862 61.8978 35.0305 74.8098Z" fill="#E6E6E6"></path>
<path d="M35.4603 83.2158C35.5082 83.279 35.5581 83.3421 35.6091 83.4044H39.9083C39.8757 83.3506 39.838 83.2875 39.7942 83.2158C39.0839 82.03 36.9817 78.4848 35.0303 74.8096C32.9332 70.86 31.0093 66.7605 31.1713 65.2769C31.1214 65.6115 29.6703 75.8125 35.4603 83.2158Z" fill="#E6E6E6"></path>
<path d="M80.1351 83.8956C80.063 86.3846 79.6123 88.8517 78.7963 91.2243C78.7776 91.2794 78.7581 91.3337 78.7385 91.3887H73.7422C73.7476 91.3394 73.7529 91.2843 73.7582 91.2243C74.0914 87.6816 76.0121 66.1195 73.7156 62.4321C73.9164 62.7313 80.5224 72.6388 80.1351 83.8956Z" fill="#E6E6E6"></path>
<path d="M79.7601 91.2244C79.7184 91.2795 79.6748 91.3346 79.6304 91.3888H75.8823C75.9108 91.342 75.9436 91.2869 75.9818 91.2244C76.601 90.1906 78.4338 87.0999 80.135 83.8957C81.9633 80.4524 83.6406 76.8785 83.4994 75.585C83.5429 75.8767 84.8079 84.7701 79.7601 91.2244Z" fill="#E6E6E6"></path>
<path d="M23.0085 10.621L25.3385 8.89719C23.5284 8.71246 22.7847 9.62562 22.4803 10.3484C21.0663 9.80524 19.5269 10.5171 19.5269 10.5171L24.1887 12.0826C23.9535 11.5015 23.5441 10.9945 23.0085 10.621Z" fill="#3F3D56"></path>
<path d="M93.1855 1.74798L95.5155 0.0241416C93.7054 -0.160587 92.9617 0.752577 92.6573 1.47535C91.2433 0.932188 89.7039 1.64403 89.7039 1.64403L94.3657 3.20958C94.1305 2.6285 93.7211 2.12148 93.1855 1.74798Z" fill="#3F3D56"></path>
<path d="M127.467 69.9178C127.467 71.3462 127.413 72.7628 127.306 74.1678C126.476 85.2525 122.321 95.9035 115.307 104.924C114.391 106.107 113.429 107.257 112.421 108.374C109.808 111.272 106.908 113.937 103.758 116.334L89.9485 108.839L81.6921 91.013C81.6921 91.013 94.011 67.9403 127.445 68.3586C127.459 68.8765 127.466 69.3963 127.467 69.9178Z" fill="#3F3D56"></path>
<path d="M127.305 74.1676C126.67 82.4508 124.186 90.5223 120.009 97.8728C115.832 105.223 110.054 111.693 103.038 116.874L90.2094 109.911L82.8875 94.1017C82.8875 94.1017 94.752 71.8804 127.305 74.1676Z" fill="#B05EFA"></path>
<path d="M115.307 104.924C114.391 106.107 113.429 107.257 112.42 108.374C105.665 115.882 97.0335 121.754 87.2727 125.481C85.2963 126.235 83.2733 126.9 81.2039 127.475C66.2613 131.151 50.4306 130.221 36.1105 124.827C21.9481 118.98 10.5034 108.653 3.83207 95.7016C2.93551 93.9581 2.12926 92.1704 1.41333 90.3384C13.8995 81.8771 38.5034 69.7611 65.3187 81.5343C72.7363 84.7909 79.3596 87.7594 85.1887 90.4398C99.9801 97.2221 109.824 102.112 115.307 104.924Z" fill="#3F3D56"></path>
<path d="M112.42 108.374C105.437 116.116 96.4618 122.109 86.3195 125.801C76.1772 129.494 65.1939 130.768 54.38 129.506C43.5662 128.244 33.269 124.486 24.436 118.579C15.6029 112.672 8.51767 104.805 3.83203 95.7016C14.2601 88.0734 38.312 74.365 64.707 85.952C71.495 88.9322 77.5552 91.6488 82.8874 94.1019C98.4319 101.229 108.007 106.072 112.42 108.374Z" fill="#B05EFA"></path>
<path d="M94.0149 122.475C91.8312 123.595 89.5801 124.599 87.2727 125.481C79.4204 128.474 71.0084 130.01 62.5155 130C52.4659 129.996 42.554 127.838 33.5583 123.693C24.5626 119.549 16.7281 113.532 10.6699 106.115C26.1825 104.602 69.0624 102.561 94.0149 122.475Z" fill="#3F3D56"></path>
<path d="M87.2727 125.481C75.0967 130.112 61.6878 131.216 48.8193 128.645C35.9509 126.074 24.2292 119.95 15.2046 111.083C20.847 110.317 65.1454 105.051 87.2727 125.481Z" fill="#B05EFA"></path>
<path d="M116.573 36.5993V36.6012C70.1943 4.88097 17.0576 27.2073 16.6472 27.3787V27.3769C22.67 21.8062 29.8216 17.3894 37.6924 14.3793C45.5632 11.3692 53.9987 9.82495 62.5156 9.83501C85.0633 9.83501 104.927 20.4637 116.573 36.5993Z" fill="#E6E6E6"></path>
<path d="M20.3669 71.0824C28.2126 69.7738 32.233 56.7085 29.3467 41.9001C26.4604 27.0917 17.7604 16.1479 9.91469 17.4564C2.06896 18.7649 -1.95146 31.8303 0.93482 46.6387C3.8211 61.4471 12.5211 72.3909 20.3669 71.0824Z" fill="#3F3D56"></path>
<path d="M22.3833 88.3766C21.9182 55.85 10.1533 25.3258 10.0346 25.0215L8.96167 25.3795C9.07983 25.6823 20.7802 56.0466 21.2429 88.3909L22.3833 88.3766Z" fill="#B05EFA"></path>
<path d="M1.50997 40.5897L1.15894 41.5938L15.2438 45.8073L15.5948 44.8032L1.50997 40.5897Z" fill="#B05EFA"></path>
<path d="M28.0049 39.4586L16.3999 47.9604L17.1082 48.7877L28.7132 40.2859L28.0049 39.4586Z" fill="#B05EFA"></path>
<path d="M58.0922 66.3931C66.7189 66.3931 73.7122 53.1936 73.7122 36.9111C73.7122 20.6287 66.7189 7.4292 58.0922 7.4292C49.4655 7.4292 42.4722 20.6287 42.4722 36.9111C42.4722 53.1936 49.4655 66.3931 58.0922 66.3931Z" fill="#3F3D56"></path>
<path d="M56.6496 85.1684C62.9056 50.4474 56.7126 15.852 56.6493 15.5068L55.4324 15.6975C55.4954 16.041 61.6528 50.4547 55.4321 84.981L56.6496 85.1684Z" fill="#B05EFA"></path>
<path d="M44.3403 30.5717L43.7581 31.5786L57.8828 38.5673L58.465 37.5604L44.3403 30.5717Z" fill="#B05EFA"></path>
<path d="M72.79 34.0722L58.667 41.0649L59.2495 42.0717L73.3726 35.079L72.79 34.0722Z" fill="#B05EFA"></path>
<path d="M125.941 56.9096C120.21 53.9332 114.222 51.4008 108.039 49.3384C73.8521 37.8951 39.9518 42.3055 26.6826 58.6825C37.0091 38.6195 73.8561 32.3108 111.04 44.7567C115.367 46.204 119.603 47.8777 123.725 49.7697C124.623 52.1048 125.363 54.4893 125.941 56.9096Z" fill="#E6E6E6"></path>
<path d="M79.7688 24.624L82.0987 22.9001C80.2887 22.7154 79.545 23.6286 79.2406 24.3513C77.8265 23.8082 76.2871 24.52 76.2871 24.52L80.949 26.0856C80.7138 25.5045 80.3044 24.9975 79.7688 24.624Z" fill="#3F3D56"></path>
</g><defs>
<clipPath id="clip0_2002_4007">
<rect width="130" height="130" fill="white"></rect>
</clipPath>
</defs></svg>