<svg width="90" height="90" viewBox="0 0 90 90" fill="none" xmlns="http://www.w3.org/2000/svg">
<circle cx="45" cy="45" r="45" fill="#E9D5FF"/>
<g clip-path="url(#clip0_2002_3091)">
<mask id="mask0_2002_3091" style="mask-type:luminance" maskUnits="userSpaceOnUse" x="21" y="21" width="49" height="49">
<path d="M21.3334 21.333H69.3334V69.333H21.3334V21.333Z" fill="white"/>
</mask>
<g mask="url(#mask0_2002_3091)">
<path fill-rule="evenodd" clip-rule="evenodd" d="M66.5209 57.1455H44.0209C42.9896 57.1455 42.1459 57.9893 42.1459 59.0205V62.7705C42.1459 63.8018 42.9896 64.6455 44.0209 64.6455H66.5209C67.5521 64.6455 68.3959 63.8018 68.3959 62.7705V59.0205C68.3959 57.9893 67.5521 57.1455 66.5209 57.1455Z" fill="#C084FC"/>
<path fill-rule="evenodd" clip-rule="evenodd" d="M66.5209 26.0205H44.0209C42.9896 26.0205 42.1459 26.8643 42.1459 27.8955V31.6455C42.1459 32.6768 42.9896 33.5205 44.0209 33.5205H66.5209C67.5521 33.5205 68.3959 32.6768 68.3959 31.6455V27.8955C68.3959 26.8643 67.5521 26.0205 66.5209 26.0205Z" fill="#C084FC"/>
<path fill-rule="evenodd" clip-rule="evenodd" d="M24.1458 41.583H46.6458C47.677 41.583 48.5208 42.4268 48.5208 43.458V47.208C48.5208 48.2393 47.677 49.083 46.6458 49.083H24.1458C23.1144 49.083 22.2708 48.2393 22.2708 47.208V43.458C22.2708 42.4268 23.1144 41.583 24.1458 41.583Z" fill="#C084FC"/>
<path d="M29.7706 57.1345C31.0801 57.1345 32.1516 58.2059 32.1516 59.5154V60.706C32.1516 62.0155 31.0802 63.0869 29.7707 63.0869C28.4612 63.0869 27.3898 62.0155 27.3898 60.706V59.5154C27.3898 58.2059 28.4611 57.1345 29.7706 57.1345Z" stroke="#581C87" stroke-width="1.875" stroke-miterlimit="22.926" stroke-linecap="round" stroke-linejoin="round"/>
<path d="M25.604 66.9536V66.0631C25.604 64.5571 26.4138 63.2311 27.6194 62.4988M31.922 62.4988C33.1276 63.2311 33.9374 64.5571 33.9374 66.0631V66.9536" stroke="#581C87" stroke-width="1.875" stroke-miterlimit="22.926" stroke-linecap="round" stroke-linejoin="round"/>
<path d="M29.7708 68.3955C33.9017 68.3955 37.2708 65.0263 37.2708 60.8955C37.2708 56.7646 33.9017 53.3955 29.7708 53.3955C25.6398 53.3955 22.2708 56.7646 22.2708 60.8955C22.2708 65.0263 25.6398 68.3955 29.7708 68.3955Z" stroke="#581C87" stroke-width="1.875" stroke-miterlimit="22.926" stroke-linecap="round" stroke-linejoin="round"/>
<path d="M49.4115 60.8955H61.1302" stroke="#581C87" stroke-width="1.875" stroke-miterlimit="22.926" stroke-linecap="round" stroke-linejoin="round"/>
<path d="M60.8959 41.572C59.5864 41.572 58.515 42.6434 58.515 43.9529V45.1434C58.515 46.4529 59.5864 47.5244 60.8959 47.5244C62.2055 47.5244 63.2769 46.4529 63.2769 45.1434V43.9529C63.2769 42.6434 62.2055 41.572 60.8959 41.572Z" stroke="#581C87" stroke-width="1.875" stroke-miterlimit="22.926" stroke-linecap="round" stroke-linejoin="round"/>
<path d="M65.0625 51.3911V50.5006C65.0625 48.9946 64.2527 47.6686 63.0471 46.9363M58.7446 46.9363C57.5389 47.6686 56.7291 48.9947 56.7291 50.5006V51.3911" stroke="#581C87" stroke-width="1.875" stroke-miterlimit="22.926" stroke-linecap="round" stroke-linejoin="round"/>
<path d="M60.8959 52.833C65.0268 52.833 68.3959 49.4639 68.3959 45.333C68.3959 41.2021 65.0268 37.833 60.8959 37.833C56.765 37.833 53.3959 41.2021 53.3959 45.333C53.3959 49.4639 56.765 52.833 60.8959 52.833Z" stroke="#581C87" stroke-width="1.875" stroke-miterlimit="22.926" stroke-linecap="round" stroke-linejoin="round"/>
<path d="M41.2551 45.333H29.5364" stroke="#581C87" stroke-width="1.875" stroke-miterlimit="22.926" stroke-linecap="round" stroke-linejoin="round"/>
<path d="M29.7706 26.0091C31.0801 26.0091 32.1516 27.0804 32.1516 28.3899V29.5806C32.1516 30.8901 31.0802 31.9614 29.7707 31.9614C28.4612 31.9614 27.3898 30.8901 27.3898 29.5806V28.3899C27.3898 27.0804 28.4611 26.0091 29.7706 26.0091Z" stroke="#581C87" stroke-width="1.875" stroke-miterlimit="22.926" stroke-linecap="round" stroke-linejoin="round"/>
<path d="M25.604 35.8281V34.9376C25.604 33.4316 26.4138 32.1056 27.6194 31.3733M31.922 31.3733C33.1276 32.1056 33.9374 33.4317 33.9374 34.9376V35.8281" stroke="#581C87" stroke-width="1.875" stroke-miterlimit="22.926" stroke-linecap="round" stroke-linejoin="round"/>
<path d="M29.7708 37.2705C33.9017 37.2705 37.2708 33.9013 37.2708 29.7705C37.2708 25.6396 33.9017 22.2705 29.7708 22.2705C25.6398 22.2705 22.2708 25.6396 22.2708 29.7705C22.2708 33.9013 25.6398 37.2705 29.7708 37.2705Z" stroke="#581C87" stroke-width="1.875" stroke-miterlimit="22.926" stroke-linecap="round" stroke-linejoin="round"/>
<path d="M49.4115 29.7705H61.1302" stroke="#581C87" stroke-width="1.875" stroke-miterlimit="22.926" stroke-linecap="round" stroke-linejoin="round"/>
</g>
</g>
<defs>
<clipPath id="clip0_2002_3091">
<rect width="48" height="48" fill="white" transform="translate(21.3334 21.333)"/>
</clipPath>
</defs>
</svg>
