<svg width="70" height="70" viewBox="0 0 70 70" fill="none" xmlns="http://www.w3.org/2000/svg">
<path opacity="0.4" d="M11.64 42.7578L7.20665 38.3245C5.39832 36.5162 5.39832 33.5412 7.20665 31.7328L11.64 27.2995C12.3983 26.5412 13.0108 25.0536 13.0108 24.0036V17.7329C13.0108 15.1663 15.1108 13.0661 17.6775 13.0661H23.9483C24.9983 13.0661 26.4858 12.4537 27.2441 11.6954L31.6773 7.26201C33.4856 5.45368 36.4609 5.45368 38.2693 7.26201L42.7026 11.6954C43.4609 12.4537 44.9481 13.0661 45.9981 13.0661H52.2693C54.8359 13.0661 56.9356 15.1663 56.9356 17.7329V24.0036C56.9356 25.0536 57.5481 26.5412 58.3065 27.2995L62.7401 31.7328C64.5484 33.5412 64.5484 36.5162 62.7401 38.3245L58.3065 42.7578C57.5481 43.5162 56.9356 45.0037 56.9356 46.0537V52.3245C56.9356 54.8912 54.8359 56.9912 52.2693 56.9912H45.9981C44.9481 56.9912 43.4609 57.6037 42.7026 58.362L38.2693 62.7953C36.4609 64.6037 33.4856 64.6037 31.6773 62.7953L27.2441 58.362C26.4858 57.6037 24.9983 56.9912 23.9483 56.9912H17.6775C15.1108 56.9912 13.0108 54.8912 13.0108 52.3245V46.0537C13.0108 44.9745 12.3983 43.487 11.64 42.7578Z" fill="#EF4444"/>
<path d="M43.7506 46.6668C42.1172 46.6668 40.8047 45.3543 40.8047 43.7502C40.8047 42.146 42.1172 40.8335 43.7214 40.8335C45.3256 40.8335 46.6381 42.146 46.6381 43.7502C46.6381 45.3543 45.3547 46.6668 43.7506 46.6668Z" fill="#EF4444"/>
<path d="M26.2792 29.1668C24.6458 29.1668 23.3333 27.8543 23.3333 26.2502C23.3333 24.646 24.6458 23.3335 26.25 23.3335C27.8541 23.3335 29.1666 24.646 29.1666 26.2502C29.1666 27.8543 27.8833 29.1668 26.2792 29.1668Z" fill="#EF4444"/>
<path d="M26.2484 45.9377C25.6942 45.9377 25.1401 45.7335 24.7026 45.296C23.8567 44.4502 23.8567 43.0499 24.7026 42.2041L42.2027 24.7042C43.0485 23.8584 44.4485 23.8584 45.2944 24.7042C46.1402 25.55 46.1402 26.9502 45.2944 27.796L27.7942 45.296C27.3567 45.7335 26.8026 45.9377 26.2484 45.9377Z" fill="#EF4444"/>
</svg>
