<svg width="90" height="90" viewBox="0 0 90 90" fill="none" xmlns="http://www.w3.org/2000/svg">
<circle cx="45" cy="45" r="45" fill="#E9D5FF"/>
<path d="M44.7454 31.488L45.5874 33.3098L47.5801 33.5476C48.4514 33.6516 48.8012 34.7283 48.1574 35.3245L46.685 36.6882L47.0746 38.657C47.245 39.5177 46.329 40.1832 45.5631 39.7552L43.8111 38.7762L42.0591 39.7552C41.2931 40.1831 40.3772 39.5177 40.5476 38.657L40.9372 36.6882L39.4648 35.3245C38.821 34.7283 39.1708 33.6516 40.0421 33.5476L42.0348 33.3098L42.8768 31.488C43.2451 30.6915 44.3773 30.6915 44.7454 31.488Z" fill="#C084FC"/>
<path d="M58.0472 31.488L58.8892 33.3098L60.8819 33.5476C61.7533 33.6516 62.103 34.7283 61.4593 35.3245L59.9868 36.6882L60.3764 38.657C60.5468 39.5177 59.6309 40.1832 58.8649 39.7552L57.1129 38.7762L55.3609 39.7552C54.5949 40.1831 53.679 39.5177 53.8494 38.657L54.239 36.6882L52.7666 35.3245C52.1228 34.7283 52.4727 33.6516 53.3439 33.5476L55.3366 33.3098L56.1786 31.488C56.547 30.6915 57.6792 30.6915 58.0472 31.488Z" fill="#C084FC"/>
<path d="M31.4435 31.488L32.2855 33.3098L34.2782 33.5476C35.1496 33.6516 35.4993 34.7283 34.8556 35.3245L33.3831 36.6882L33.7727 38.657C33.9431 39.5177 33.0272 40.1832 32.2612 39.7552L30.5092 38.7762L28.7572 39.7552C27.9912 40.1831 27.0753 39.5177 27.2457 38.657L27.6353 36.6882L26.1629 35.3245C25.5191 34.7283 25.869 33.6516 26.7402 33.5476L28.7329 33.3098L29.5749 31.488C29.9433 30.6915 31.0754 30.6915 31.4435 31.488Z" fill="#C084FC"/>
<path d="M65.6848 43.8115V27.2095C65.6848 25.4084 64.2247 23.9482 62.4235 23.9482H25.1988C23.3977 23.9482 21.9375 25.4083 21.9375 27.2095V43.5699C21.9375 45.3711 23.3977 46.8312 25.1988 46.8312H27.5485V49.9381L32.8598 46.8312H39.756" stroke="#581C87" stroke-width="1.875" stroke-miterlimit="10" stroke-linecap="round" stroke-linejoin="round"/>
<path d="M64.8012 43.8115H43.3224C41.5213 43.8115 40.0612 45.2717 40.0612 47.0728V59.6832C40.0612 61.4843 41.5213 62.9445 43.3224 62.9445H45.6722V66.0514L50.9834 62.9445H64.8011C66.6023 62.9445 68.0624 61.4843 68.0624 59.6832V47.0728C68.0625 45.2717 66.6023 43.8115 64.8012 43.8115Z" stroke="#581C87" stroke-width="1.875" stroke-miterlimit="10" stroke-linecap="round" stroke-linejoin="round"/>
<path d="M48.106 51.1211H60.0177" stroke="#581C87" stroke-width="1.875" stroke-miterlimit="10" stroke-linecap="round" stroke-linejoin="round"/>
<path d="M48.106 55.9082H60.0177" stroke="#581C87" stroke-width="1.875" stroke-miterlimit="10" stroke-linecap="round" stroke-linejoin="round"/>
</svg>
