<svg width="50" height="50" viewBox="0 0 50 50" fill="none" xmlns="http://www.w3.org/2000/svg">
<path d="M17.971 25.3271H20.5513C21.2303 25.3271 21.7826 25.8791 21.7826 26.5581V33.8856C21.7826 34.736 22.4742 35.4278 23.3244 35.4278H26.6754C27.5256 35.4278 28.217 34.736 28.217 33.8856V26.5581C28.217 25.8791 28.7695 25.3271 29.4485 25.3271H32.0288C32.4596 25.3271 32.7694 25.1812 32.9009 24.9162C33.0324 24.6515 32.9613 24.3165 32.7011 23.973L25.9616 15.0896C25.7086 14.7564 25.367 14.5725 24.9997 14.5725C24.6325 14.5725 24.2909 14.7564 24.0379 15.0896L17.2984 23.973C17.038 24.3165 16.9671 24.6516 17.0986 24.9162C17.2302 25.1812 17.5401 25.3271 17.971 25.3271Z" fill="#7E22CE"/>
<path d="M24.9998 0C11.2148 0 0 11.2148 0 25C0 38.7852 11.2148 50 24.9998 50C38.7848 50 49.9996 38.7852 49.9996 25C49.9996 11.2148 38.7848 0 24.9998 0ZM24.9998 6.52197C35.1887 6.52197 43.4779 14.8109 43.4779 25C43.4779 35.1891 35.1887 43.478 24.9998 43.478C14.8109 43.478 6.52158 35.1891 6.52158 25C6.52158 14.8109 14.811 6.52197 24.9998 6.52197Z" fill="#7E22CE"/>
</svg>
