<svg width="27" height="33" viewBox="0 0 27 33" fill="none" xmlns="http://www.w3.org/2000/svg">
<g clip-path="url(#clip0_2081_4524)">
<path d="M13.3333 9.66667C14.0667 9.66667 14.6667 10.2667 14.6667 11V16.3333C14.6667 17.0667 14.0667 17.6667 13.3333 17.6667C12.6 17.6667 12 17.0667 12 16.3333V11C12 10.2667 12.6 9.66667 13.3333 9.66667ZM13.32 3C5.96 3 0 8.97333 0 16.3333C0 23.6933 5.96 29.6667 13.32 29.6667C20.6933 29.6667 26.6667 23.6933 26.6667 16.3333C26.6667 8.97333 20.6933 3 13.32 3ZM13.3333 27C7.44 27 2.66667 22.2267 2.66667 16.3333C2.66667 10.44 7.44 5.66667 13.3333 5.66667C19.2267 5.66667 24 10.44 24 16.3333C24 22.2267 19.2267 27 13.3333 27ZM14.6667 23H12V20.3333H14.6667V23Z" fill="#0F172A"/>
</g>
<defs>
<clipPath id="clip0_2081_4524">
<rect width="26.6667" height="32.6667" fill="white"/>
</clipPath>
</defs>
</svg>
