<svg width="408" height="310" viewBox="0 0 408 310" fill="none" xmlns="http://www.w3.org/2000/svg">
<g clip-path="url(#clip0_2002_2998)">
<path d="M59.8739 264.221C85.6245 251.801 138.856 230.964 206.049 230.964C273.241 230.964 326.473 251.801 352.224 264.221C377.293 276.313 397.454 290.57 406.951 302.203C410.413 297.819 405.332 219.819 391.271 188.886C370.657 143.428 336.086 104.639 291.888 77.3798C247.689 50.1203 195.828 35.6019 142.802 35.6431C123.941 35.5951 105.257 39.0285 87.8314 45.7444C70.4059 52.4604 54.5852 62.3255 41.2848 74.7688C40.7199 75.2944 40.1603 75.8236 39.606 76.3564C9.84722 104.96 -4.04801 144.755 1.02519 184.284C4.63709 212.427 13.5387 271.292 26.1163 283.773C36.7668 276.396 48.0582 269.856 59.8739 264.221Z" fill="#F2F2F2"/>
<path d="M252.763 72.3083C274.018 72.3083 291.248 56.2763 291.248 36.4998C291.248 16.7234 274.018 0.691406 252.763 0.691406C231.509 0.691406 214.278 16.7234 214.278 36.4998C214.278 56.2763 231.509 72.3083 252.763 72.3083Z" fill="#B05EFA"/>
<path d="M209.041 250.267C232.669 250.267 251.823 246.549 251.823 241.963C251.823 237.377 232.669 233.659 209.041 233.659C185.413 233.659 166.26 237.377 166.26 241.963C166.26 246.549 185.413 250.267 209.041 250.267Z" fill="#F2F2F2"/>
<path d="M252.502 54.3402C213.284 54.3369 182.565 47.7217 182.565 39.2798C182.566 34.2186 193.452 29.7037 212.431 26.8933C212.499 26.8827 212.568 26.8847 212.635 26.899C212.701 26.9133 212.765 26.9398 212.82 26.9768C212.876 27.0138 212.924 27.0607 212.96 27.1148C212.996 27.1688 213.021 27.229 213.032 27.2919C213.043 27.3548 213.041 27.4192 213.026 27.4813C213.011 27.5435 212.982 27.6022 212.942 27.6541C212.903 27.706 212.852 27.7502 212.794 27.784C212.736 27.8178 212.671 27.8406 212.604 27.8512L212.602 27.8515L212.595 27.8524C194.716 30.5001 183.61 34.8788 183.609 39.2799C183.609 46.9138 215.157 53.3658 252.502 53.3689C289.846 53.372 321.397 46.9254 321.397 39.2914C321.398 34.8719 310.221 30.4806 292.228 27.8316C292.16 27.8221 292.095 27.8002 292.036 27.7672C291.978 27.7342 291.926 27.6908 291.886 27.6393C291.845 27.5879 291.816 27.5295 291.799 27.4675C291.783 27.4055 291.78 27.3411 291.79 27.2779C291.8 27.2148 291.824 27.1542 291.86 27.0996C291.895 27.045 291.942 26.9974 291.997 26.9597C292.053 26.9219 292.116 26.8947 292.182 26.8796C292.249 26.8644 292.318 26.8617 292.386 26.8715L292.388 26.8717L292.391 26.8722C311.489 29.684 322.442 34.2107 322.441 39.2915C322.44 47.7334 291.719 54.3435 252.502 54.3402Z" fill="#3F3D56"/>
<path d="M255.297 48.5554C221.503 67.0705 191.425 75.8758 186.821 68.6013C184.061 64.2401 190.979 55.2097 205.8 43.8261C205.852 43.7851 205.913 43.7541 205.978 43.7349C206.044 43.7158 206.112 43.7087 206.181 43.7143C206.249 43.7198 206.315 43.7378 206.376 43.7673C206.437 43.7967 206.491 43.837 206.535 43.8858C206.579 43.9347 206.612 43.9911 206.633 44.0519C206.654 44.1127 206.661 44.1767 206.655 44.2403C206.649 44.3038 206.63 44.3656 206.598 44.4222C206.567 44.4788 206.523 44.529 206.471 44.57L206.469 44.5712L206.464 44.5751C192.503 55.2986 185.321 64.3161 187.721 68.1085C191.884 74.6868 222.587 65.3493 254.767 47.7184C286.947 30.0876 310.617 9.63519 306.454 3.05691C304.044 -0.751433 292.018 0.742304 275.07 6.9556C275.006 6.97928 274.938 6.99107 274.87 6.99029C274.801 6.9895 274.734 6.97616 274.671 6.95103C274.608 6.92591 274.551 6.88948 274.503 6.84383C274.455 6.79818 274.417 6.74421 274.392 6.68499C274.366 6.62577 274.353 6.56247 274.354 6.49869C274.355 6.43492 274.369 6.37192 274.396 6.3133C274.424 6.25468 274.463 6.20159 274.512 6.15705C274.561 6.1125 274.619 6.07739 274.682 6.05371L274.684 6.05312L274.687 6.05185C292.677 -0.542917 304.583 -1.81416 307.354 2.56408C311.957 9.83854 289.091 30.0403 255.297 48.5554Z" fill="#3F3D56"/>
<path d="M210.252 246.369C226.28 246.369 239.273 244.364 239.273 241.892C239.273 239.42 226.28 237.416 210.252 237.416C194.224 237.416 181.23 239.42 181.23 241.892C181.23 244.364 194.224 246.369 210.252 246.369Z" fill="#E6E6E6"/>
<path d="M113.529 293.692C140.495 293.692 162.356 289.449 162.356 284.214C162.356 278.98 140.495 274.736 113.529 274.736C86.5626 274.736 64.702 278.98 64.702 284.214C64.702 289.449 86.5626 293.692 113.529 293.692Z" fill="#F2F2F2"/>
<path d="M312.382 310C352.59 310 385.186 303.673 385.186 295.868C385.186 288.063 352.59 281.736 312.382 281.736C272.174 281.736 239.578 288.063 239.578 295.868C239.578 303.673 272.174 310 312.382 310Z" fill="#F2F2F2"/>
<path d="M113.38 289.683C134.051 289.683 150.808 287.098 150.808 283.91C150.808 280.721 134.051 278.137 113.38 278.137C92.7096 278.137 75.9526 280.721 75.9526 283.91C75.9526 287.098 92.7096 289.683 113.38 289.683Z" fill="#E6E6E6"/>
<path d="M312.398 304.84C347.738 304.84 376.387 300.421 376.387 294.97C376.387 289.519 347.738 285.1 312.398 285.1C277.058 285.1 248.409 289.519 248.409 294.97C248.409 300.421 277.058 304.84 312.398 304.84Z" fill="#E6E6E6"/>
<path d="M30.1603 157.293C32.1781 157.293 33.8138 155.771 33.8138 153.894C33.8138 152.017 32.1781 150.495 30.1603 150.495C28.1425 150.495 26.5068 152.017 26.5068 153.894C26.5068 155.771 28.1425 157.293 30.1603 157.293Z" fill="white"/>
<path d="M285.903 206.828C287.921 206.828 289.557 205.306 289.557 203.428C289.557 201.551 287.921 200.029 285.903 200.029C283.885 200.029 282.25 201.551 282.25 203.428C282.25 205.306 283.885 206.828 285.903 206.828Z" fill="white"/>
<path d="M161.128 94.6861C169.998 97.0413 169.657 101.971 180.178 101.971C190.7 101.971 199.229 103.269 199.229 94.6861C199.229 86.1035 195.041 70.1488 180.178 70.8902C164.182 71.6882 155.75 93.2581 161.128 94.6861Z" fill="#2F2E41"/>
<path d="M137.785 167.362C137.403 166.687 137.185 165.943 137.146 165.181C137.107 164.419 137.249 163.658 137.56 162.953C137.871 162.247 138.344 161.614 138.947 161.097C139.55 160.58 140.267 160.192 141.048 159.961L162.873 117.003L172.857 123.517L148.264 163.695C148.594 164.942 148.422 166.258 147.778 167.394C147.135 168.53 146.067 169.407 144.775 169.859C143.483 170.311 142.058 170.307 140.77 169.847C139.482 169.386 138.42 168.502 137.785 167.362Z" fill="#FFB8B8"/>
<path d="M156.486 122.707C156.382 122.385 156.354 122.046 156.404 121.713C156.454 121.38 156.58 121.061 156.775 120.777L163.56 110.879C164.314 109.309 165.707 108.081 167.433 107.465C169.159 106.848 171.077 106.894 172.766 107.591C174.456 108.289 175.779 109.581 176.446 111.186C177.113 112.79 177.07 114.574 176.324 116.148L172.906 127.489C172.809 127.813 172.637 128.113 172.404 128.37C172.17 128.626 171.88 128.833 171.553 128.976C171.226 129.118 170.87 129.194 170.508 129.197C170.147 129.2 169.789 129.13 169.459 128.993L157.868 124.17C157.538 124.033 157.244 123.832 157.006 123.579C156.767 123.326 156.59 123.029 156.486 122.707Z" fill="#B05EFA"/>
<path d="M217.035 250.379L211.023 252.416L199.717 231.807L208.591 228.8L217.035 250.379Z" fill="#FFB8B8"/>
<path d="M206.102 252.272L217.698 248.344L220.356 255.137L201.46 261.539C200.755 259.737 200.848 257.749 201.719 256.011C202.589 254.273 204.166 252.928 206.102 252.272Z" fill="#2F2E41"/>
<path d="M200.621 237.342L177.716 200.045C177.494 199.684 177.38 199.275 177.385 198.86C177.39 198.444 177.513 198.037 177.743 197.681L188.057 181.686C188.302 181.306 188.657 180.999 189.082 180.8C189.506 180.601 189.983 180.518 190.456 180.561C190.929 180.604 191.38 180.77 191.755 181.042C192.131 181.313 192.416 181.678 192.577 182.094L212.078 232.342C212.293 232.889 212.28 233.491 212.041 234.029C211.803 234.567 211.357 235.003 210.79 235.25L203.88 238.296C203.547 238.443 203.182 238.519 202.813 238.519C202.369 238.519 201.933 238.411 201.548 238.204C201.163 237.998 200.843 237.701 200.621 237.342Z" fill="#2F2E41"/>
<path d="M179.365 101.505C186.445 101.505 192.184 96.1649 192.184 89.5775C192.184 82.9901 186.445 77.6499 179.365 77.6499C172.286 77.6499 166.546 82.9901 166.546 89.5775C166.546 96.1649 172.286 101.505 179.365 101.505Z" fill="#FFB8B8"/>
<path d="M161.132 143.604C151.037 122.776 161.214 111.136 166.058 107.098C167.454 105.933 169.262 105.289 171.137 105.291H189.195C190.492 105.29 191.767 105.599 192.9 106.186C194.032 106.774 194.985 107.621 195.666 108.648C196.348 109.674 196.737 110.845 196.795 112.051C196.853 113.256 196.579 114.455 196 115.535L183.928 137.999L161.23 143.807L161.132 143.604Z" fill="#B05EFA"/>
<path d="M175.731 256.01L169.332 256.01L166.288 233.045L175.732 233.046L175.731 256.01Z" fill="#FFB8B8"/>
<path d="M164.762 254.309H177.102V261.539H156.992C156.992 260.589 157.193 259.649 157.583 258.772C157.974 257.895 158.546 257.098 159.267 256.427C159.989 255.755 160.846 255.223 161.788 254.859C162.731 254.496 163.741 254.309 164.762 254.309Z" fill="#2F2E41"/>
<path d="M173.02 247.244L162.775 246.144C162.112 246.073 161.508 245.76 161.093 245.274C160.679 244.787 160.489 244.168 160.566 243.551C160.567 243.538 160.569 243.525 160.571 243.512L169.714 179.458C169.746 179.234 169.733 179.008 169.676 178.789L160.486 143.511C160.399 143.185 160.389 142.846 160.457 142.517C160.525 142.188 160.669 141.876 160.88 141.604C162.305 139.776 167.187 135.516 181.712 135.435H181.727C182.211 135.435 182.685 135.565 183.092 135.808C183.498 136.051 183.822 136.398 184.022 136.808L185.96 140.773C186.104 141.068 186.33 141.321 186.614 141.508C189.281 143.264 202.2 153.123 194.614 174.768C187.158 196.042 177.606 237.344 175.766 245.407C175.649 245.931 175.341 246.402 174.895 246.739C174.448 247.077 173.89 247.26 173.315 247.26C173.216 247.26 173.118 247.254 173.02 247.244Z" fill="#2F2E41"/>
<path d="M223.979 92.5709C224.004 92.8386 224.052 93.1041 224.122 93.3649L206.717 111.191L200.57 109.959L197.358 118.347L208.012 121.513C208.873 121.769 209.8 121.758 210.653 121.482C211.506 121.206 212.241 120.68 212.746 119.983L229.197 97.2578C230.309 97.3038 231.409 97.0339 232.351 96.4839C233.294 95.9339 234.034 95.1299 234.474 94.1789C234.913 93.2279 235.031 92.175 234.812 91.1601C234.592 90.1452 234.046 89.2165 233.246 88.4975C232.445 87.7785 231.429 87.3033 230.331 87.1351C229.233 86.9669 228.106 87.1137 227.1 87.5559C226.094 87.9981 225.257 88.7148 224.699 89.6106C224.142 90.5065 223.891 91.539 223.979 92.5709Z" fill="#FFB8B8"/>
<path d="M206.19 111.947L202.155 122.326C202.04 122.621 201.858 122.89 201.622 123.114C201.385 123.338 201.1 123.512 200.784 123.624C200.469 123.736 200.132 123.784 199.795 123.763C199.458 123.743 199.13 123.655 198.833 123.506L188.421 118.287C186.801 117.732 185.483 116.602 184.756 115.144C184.03 113.686 183.955 112.02 184.547 110.51C185.139 109.001 186.35 107.772 187.915 107.092C189.48 106.412 191.271 106.338 192.895 106.885L204.448 109.062C204.779 109.124 205.092 109.252 205.364 109.437C205.637 109.622 205.864 109.859 206.029 110.133C206.195 110.407 206.294 110.711 206.322 111.024C206.35 111.337 206.305 111.652 206.19 111.947Z" fill="#B05EFA"/>
<path d="M195.053 88.8588H189.983L187.746 83.0312L187.299 88.8588H184.876L183.571 85.4594L183.31 88.8588C176.969 91.3485 170.957 91.4172 165.304 88.8588C165.304 85.5101 166.733 82.2985 169.278 79.9306C171.823 77.5627 175.275 76.2324 178.874 76.2324H181.483C185.082 76.2324 188.534 77.5627 191.079 79.9306C193.624 82.2985 195.053 85.5101 195.053 88.8588Z" fill="#2F2E41"/>
<path d="M59.649 213.627H57.8223V211.927C57.8223 211.347 57.5748 210.792 57.1344 210.382C56.6939 209.972 56.0965 209.742 55.4736 209.742C54.8507 209.742 54.2533 209.972 53.8129 210.382C53.3724 210.792 53.125 211.347 53.125 211.927V213.627H51.2982C50.6753 213.627 50.078 213.857 49.6375 214.267C49.197 214.677 48.9496 215.232 48.9496 215.812C48.9496 216.392 49.197 216.948 49.6375 217.357C50.078 217.767 50.6753 217.997 51.2982 217.997H53.125V219.697C53.125 220.277 53.3724 220.833 53.8129 221.242C54.2533 221.652 54.8507 221.882 55.4736 221.882C56.0965 221.882 56.6939 221.652 57.1344 221.242C57.5748 220.833 57.8223 220.277 57.8223 219.697V217.997H59.649C60.2719 217.997 60.8693 217.767 61.3098 217.357C61.7502 216.948 61.9977 216.392 61.9977 215.812C61.9977 215.232 61.7502 214.677 61.3098 214.267C60.8693 213.857 60.2719 213.627 59.649 213.627Z" fill="white"/>
<path d="M328.523 171.94H327.574V171.056C327.574 170.755 327.445 170.466 327.216 170.253C326.987 170.04 326.676 169.92 326.352 169.92C326.028 169.92 325.718 170.04 325.489 170.253C325.26 170.466 325.131 170.755 325.131 171.056V171.94H324.181C323.857 171.94 323.546 172.06 323.317 172.273C323.088 172.486 322.96 172.775 322.96 173.077C322.96 173.378 323.088 173.667 323.317 173.88C323.546 174.093 323.857 174.213 324.181 174.213H325.131V175.097C325.131 175.398 325.26 175.687 325.489 175.9C325.718 176.113 326.028 176.233 326.352 176.233C326.676 176.233 326.987 176.113 327.216 175.9C327.445 175.687 327.574 175.398 327.574 175.097V174.213H328.523C328.847 174.213 329.158 174.094 329.388 173.881C329.617 173.669 329.746 173.38 329.747 173.079C329.747 172.777 329.619 172.488 329.391 172.274C329.162 172.061 328.852 171.941 328.528 171.94H328.523Z" fill="#FF6584"/>
<path d="M51.3818 113.179H50.4319V112.295C50.4325 111.994 50.3044 111.705 50.0758 111.491C49.8472 111.278 49.5367 111.157 49.2128 111.157C49.0525 111.156 48.8936 111.186 48.7453 111.242C48.597 111.299 48.4622 111.383 48.3486 111.488C48.1191 111.701 47.9899 111.99 47.9893 112.291V113.179H47.0394C46.879 113.179 46.7201 113.208 46.5718 113.265C46.4236 113.322 46.2888 113.405 46.1752 113.511C46.0615 113.616 45.9714 113.741 45.9097 113.879C45.8481 114.017 45.8162 114.164 45.8159 114.313C45.8156 114.463 45.847 114.611 45.9081 114.748C45.9692 114.886 46.0589 115.012 46.1721 115.118C46.2853 115.223 46.4198 115.307 46.5679 115.365C46.7159 115.422 46.8747 115.452 47.0351 115.452H47.9893V116.336C47.9887 116.637 48.1168 116.926 48.3454 117.14C48.574 117.353 48.8844 117.474 49.2083 117.474C49.5322 117.475 49.8431 117.356 50.0726 117.143C50.302 116.93 50.4313 116.641 50.4319 116.34V115.452H51.3818C51.7057 115.453 52.0167 115.334 52.2464 115.121C52.4761 114.909 52.6056 114.62 52.6065 114.319C52.6075 114.017 52.4797 113.728 52.2513 113.514C52.0229 113.3 51.7126 113.18 51.3887 113.179H51.3861L51.3818 113.179Z" fill="#B05EFA"/>
<path d="M121.842 113.179H120.892V112.295C120.892 111.994 120.764 111.705 120.535 111.491C120.307 111.278 119.996 111.157 119.673 111.157C119.349 111.156 119.038 111.275 118.808 111.488C118.579 111.701 118.45 111.99 118.449 112.291V113.179H117.499C117.175 113.179 116.864 113.298 116.635 113.511C116.405 113.723 116.276 114.012 116.276 114.313C116.275 114.615 116.403 114.904 116.632 115.118C116.86 115.331 117.171 115.451 117.495 115.452H118.449V116.336C118.448 116.637 118.576 116.926 118.805 117.14C119.034 117.353 119.344 117.474 119.668 117.474C119.992 117.475 120.303 117.356 120.532 117.143C120.762 116.93 120.891 116.641 120.892 116.34V115.452H121.842C122.165 115.453 122.476 115.334 122.706 115.121C122.936 114.909 123.065 114.62 123.066 114.319C123.067 114.017 122.939 113.728 122.711 113.514C122.483 113.3 122.172 113.18 121.848 113.179H121.846L121.842 113.179Z" fill="white"/>
<path d="M364.536 229.73H363.586V228.846C363.586 228.545 363.458 228.256 363.229 228.043C363 227.83 362.689 227.71 362.365 227.71C362.041 227.71 361.731 227.83 361.501 228.043C361.272 228.256 361.144 228.545 361.144 228.846V229.73H360.194C359.87 229.73 359.559 229.85 359.33 230.063C359.101 230.276 358.973 230.565 358.973 230.867C358.973 231.168 359.101 231.457 359.33 231.67C359.559 231.883 359.87 232.003 360.194 232.003H361.144V232.887C361.144 233.188 361.272 233.477 361.501 233.69C361.731 233.903 362.041 234.023 362.365 234.023C362.689 234.023 363 233.903 363.229 233.69C363.458 233.477 363.586 233.188 363.586 232.887V232.003H364.536C364.86 232.003 365.171 231.883 365.4 231.67C365.629 231.457 365.758 231.168 365.758 230.867C365.758 230.565 365.629 230.276 365.4 230.063C365.171 229.85 364.86 229.73 364.536 229.73Z" fill="white"/>
<path d="M254.932 135.032H253.982V134.149C253.982 133.847 253.854 133.558 253.625 133.345C253.395 133.132 253.085 133.012 252.761 133.012C252.437 133.012 252.126 133.132 251.897 133.345C251.668 133.558 251.54 133.847 251.54 134.149V135.032H250.59C250.266 135.032 249.955 135.152 249.726 135.365C249.497 135.578 249.368 135.867 249.368 136.169C249.368 136.47 249.497 136.759 249.726 136.972C249.955 137.185 250.266 137.305 250.59 137.305H251.54V138.189C251.54 138.49 251.668 138.779 251.897 138.993C252.126 139.206 252.437 139.325 252.761 139.325C253.085 139.325 253.395 139.206 253.625 138.993C253.854 138.779 253.982 138.49 253.982 138.189V137.305H254.932C255.093 137.305 255.251 137.276 255.4 137.219C255.548 137.163 255.683 137.079 255.796 136.974C255.91 136.868 256 136.743 256.062 136.606C256.123 136.468 256.155 136.32 256.156 136.171C256.156 136.022 256.125 135.874 256.063 135.736C256.002 135.598 255.913 135.472 255.799 135.367C255.686 135.261 255.552 135.177 255.404 135.12C255.256 135.062 255.097 135.033 254.936 135.032H254.932Z" fill="white"/>
<path d="M87.3945 159.314H86.4446V158.43C86.4452 158.129 86.3171 157.839 86.0885 157.626C85.8599 157.412 85.5494 157.292 85.2255 157.292C84.9016 157.291 84.5908 157.41 84.3613 157.623C84.1318 157.836 84.0026 158.124 84.002 158.426V159.314H83.0521C82.7282 159.313 82.4173 159.433 82.1879 159.645C81.9584 159.858 81.8292 160.147 81.8286 160.448C81.828 160.75 81.9562 161.039 82.1848 161.252C82.4134 161.466 82.7239 161.586 83.0478 161.587H84.002V162.47C84.0014 162.772 84.1295 163.061 84.3581 163.275C84.5867 163.488 84.8971 163.608 85.221 163.609C85.5449 163.609 85.8558 163.49 86.0853 163.278C86.3147 163.065 86.444 162.776 86.4446 162.475V161.587H87.3945C87.7184 161.587 88.0293 161.468 88.2587 161.255C88.4881 161.042 88.6173 160.754 88.6179 160.452C88.6185 160.151 88.4904 159.862 88.2617 159.648C88.0331 159.435 87.7227 159.314 87.3988 159.314L87.3945 159.314Z" fill="white"/>
<path d="M90.5261 78.6991H89.5762V77.8152C89.5768 77.5139 89.4487 77.2246 89.2201 77.0111C88.9915 76.7976 88.681 76.6773 88.3571 76.6768C88.0332 76.6762 87.7223 76.7954 87.4929 77.0081C87.2634 77.2208 87.1342 77.5096 87.1336 77.811V78.6991H86.1837C85.8597 78.6986 85.5489 78.8178 85.3194 79.0305C85.09 79.2433 84.9608 79.5321 84.9602 79.8335C84.9596 80.1349 85.0878 80.4241 85.3164 80.6376C85.545 80.8511 85.8555 80.9713 86.1794 80.9718H87.1336V81.8557C87.133 82.1571 87.2611 82.4463 87.4897 82.6598C87.7183 82.8734 88.0287 82.9936 88.3526 82.9942C88.6765 82.9947 88.9874 82.8756 89.2168 82.6628C89.4463 82.4501 89.5756 82.1613 89.5762 81.8599V80.9718H90.5261C90.85 80.9724 91.1608 80.8532 91.3903 80.6404C91.6197 80.4277 91.7489 80.1389 91.7495 79.8375C91.7501 79.5361 91.6219 79.2468 91.3933 79.0334C91.1647 78.8199 90.8543 78.6996 90.5304 78.6991L90.5261 78.6991Z" fill="white"/>
<path d="M252.762 47.3484C214.955 29.579 183.252 35.3529 182.825 32.288C182.826 27.2268 193.711 22.7119 212.691 19.9014C212.759 19.8908 212.828 19.8927 212.895 19.907C212.962 19.9212 213.025 19.9477 213.081 19.9847C213.136 20.0217 213.184 20.0686 213.22 20.1227C213.257 20.1768 213.281 20.237 213.293 20.3C213.304 20.3629 213.302 20.4273 213.286 20.4895C213.271 20.5517 213.243 20.6105 213.203 20.6624C213.163 20.7144 213.112 20.7585 213.054 20.7923C212.996 20.8261 212.931 20.8489 212.864 20.8593L212.862 20.8596L212.855 20.8606C194.976 23.5083 183.87 27.887 183.869 32.288C183.868 39.922 215.417 46.3739 252.762 46.3771C290.106 46.3802 321.656 39.9336 321.657 32.2996C321.657 27.8801 310.481 23.4888 292.488 20.8398C292.42 20.8301 292.355 20.8082 292.297 20.7751C292.238 20.7421 292.187 20.6986 292.146 20.6472C292.106 20.5958 292.076 20.5375 292.06 20.4756C292.044 20.4136 292.041 20.3493 292.051 20.2862C292.061 20.2232 292.085 20.1627 292.12 20.1081C292.156 20.0536 292.203 20.006 292.258 19.9683C292.313 19.9305 292.376 19.9033 292.442 19.888C292.509 19.8728 292.578 19.87 292.646 19.8796L292.648 19.8799L292.651 19.8804C311.749 22.6921 322.701 27.2188 322.701 32.2997C322.7 40.7416 287.767 63.8011 252.762 47.3484Z" fill="#3F3D56"/>
</g>
<defs>
<clipPath id="clip0_2002_2998">
<rect width="408" height="310" fill="white"/>
</clipPath>
</defs>
</svg>
